<svg xmlns="http://www.w3.org/2000/svg" viewBox="0 0 600 600" width="600" height="600">
  <defs>
    <radialGradient id="studioBg" cx="50%" cy="42%" r="65%">
      <stop offset="0%" stop-color="#1e222d"/>
      <stop offset="55%" stop-color="#111318"/>
      <stop offset="100%" stop-color="#08090c"/>
    </radialGradient>
    <radialGradient id="floorSpot" cx="50%" cy="50%" r="50%">
      <stop offset="0%" stop-color="rgba(255,255,255,0.08)"/>
      <stop offset="100%" stop-color="rgba(0,0,0,0)"/>
    </radialGradient>
    <filter id="studioShadow" x="-20%" y="-20%" width="140%" height="140%">
      <feDropShadow dx="0" dy="16" stdDeviation="18" flood-color="#000000" flood-opacity="0.75"/>
    </filter>
    <linearGradient id="metalChrome" x1="0%" y1="0%" x2="100%" y2="100%">
      <stop offset="0%" stop-color="#e2e8f0"/>
      <stop offset="25%" stop-color="#94a3b8"/>
      <stop offset="50%" stop-color="#f8fafc"/>
      <stop offset="75%" stop-color="#64748b"/>
      <stop offset="100%" stop-color="#cbd5e1"/>
    </linearGradient>
    <linearGradient id="rotorSteel" x1="0%" y1="0%" x2="100%" y2="100%">
      <stop offset="0%" stop-color="#8a95a5"/>
      <stop offset="35%" stop-color="#4a5568"/>
      <stop offset="70%" stop-color="#9aa5b8"/>
      <stop offset="100%" stop-color="#2d3748"/>
    </linearGradient>
    
  </defs>

  <!-- Studio Canvas -->
  <rect width="600" height="600" fill="url(#studioBg)"/>
  <ellipse cx="300" cy="515" rx="220" ry="32" fill="url(#floorSpot)"/>
  <ellipse cx="300" cy="515" rx="160" ry="18" fill="rgba(0,0,0,0.65)"/>

  <!-- Content -->
  
    <g filter="url(#studioShadow)">
      
      <!-- KTM Ergonomic Seat Contour -->
      <path d="M120 350 Q220 280 380 290 Q460 300 500 340 Q470 380 380 380 Q240 390 120 350 Z" fill="#181a20" stroke="#f97316" stroke-width="4"/>
      <path d="M160 335 Q240 300 370 305 Q430 310 470 345" fill="none" stroke="#f97316" stroke-width="2.5" stroke-dasharray="6,4"/>
      <rect x="270" y="335" width="80" height="24" rx="4" fill="#000000" stroke="#f97316" stroke-width="1.5"/>
      <text x="310" y="352" fill="#f97316" font-family="Arial, sans-serif" font-size="12" font-weight="900" text-anchor="middle">KTM POWERPARTS</text>
    
      <!-- Tech Badge -->
      <rect x="200" y="460" width="200" height="32" rx="6" fill="#0f172a" stroke="#334155" stroke-width="1.5"/>
      <text x="300" y="481" fill="#f8fafc" font-family="Arial, sans-serif" font-size="13" font-weight="900" text-anchor="middle">KTM • PowerParts Ergonomics</text>
    </g>
  

  <!-- Studio Watermark Tag -->
  <text x="32" y="568" fill="#475569" font-family="-apple-system, BlinkMacSystemFont, 'Segoe UI', Roboto, sans-serif" font-size="11" font-weight="700" letter-spacing="1.5">MOTODC AUTHENTIC PART • KTM • ERGONOMIC COMFORT SEAT</text>
</svg>